<?xml version="1.0" standalone="no"?>
<!DOCTYPE svg PUBLIC "-//W3C//DTD SVG 20010904//EN"
 "http://www.w3.org/TR/2001/REC-SVG-20010904/DTD/svg10.dtd">
<svg version="1.0" xmlns="http://www.w3.org/2000/svg"
 width="16.000000pt" height="16.000000pt" viewBox="0 0 16.000000 16.000000"
 preserveAspectRatio="xMidYMid meet">

<g transform="translate(0.000000,16.000000) scale(0.100000,-0.100000)"
fill="#FFF" stroke="none">
<path d="M0 80 l0 -80 80 0 80 0 0 80 0 80 -80 0 -80 0 0 -80z m125 45 c19
-18 25 -35 25 -70 0 -25 -4 -45 -10 -45 -5 0 -10 22 -10 48 0 55 -12 72 -51
72 -35 0 -51 -21 -47 -62 2 -28 7 -33 28 -33 20 0 26 6 28 28 2 15 -1 27 -7
27 -6 0 -11 -9 -11 -20 0 -11 -4 -20 -10 -20 -15 0 -12 36 5 50 35 29 61 -36
28 -72 -20 -22 -41 -23 -65 -1 -39 35 -2 123 52 123 12 0 32 -11 45 -25z"/>
</g>
</svg>
