<?xml version="1.0" encoding="UTF-8" standalone="no"?>
<!DOCTYPE svg PUBLIC "-//W3C//DTD SVG 1.1//EN" "http://www.w3.org/Graphics/SVG/1.1/DTD/svg11.dtd">
<svg width="100%" height="100%" viewBox="0 0 432 157" version="1.1" xmlns="http://www.w3.org/2000/svg" xmlns:xlink="http://www.w3.org/1999/xlink" xml:space="preserve" xmlns:serif="http://www.serif.com/" style="fill-rule:evenodd;clip-rule:evenodd;stroke-linejoin:round;stroke-miterlimit:2;">
    <g transform="matrix(1,0,0,1,-41.20237,-22.618348)">
        <g id="New-Logo" serif:id="New Logo" transform="matrix(1,0,0,1,35.666723,24.460922)">
            <g id="Back-Waves" serif:id="Back Waves" transform="matrix(0.194345,0,0,0.223274,-111.068546,17.889122)">
                <g transform="matrix(0.080037,0,0,0.079885,-463.093566,22.394032)">
                    <path d="M26799,0C27257,-2 27686,46 28034,141C28034,141 30253.489,852.024 31136.22,2088.074C32202.666,3581.371 34245.33,5275.171 35200.055,5683.313C36275.63,6143.118 29989.15,3078.667 28396,2173C27826.034,1848.988 27097.084,1722.434 26455,1855C24381.167,2283.167 25707.54,3147.028 22491.54,3672.028C19275.54,4196.028 16979.1,2989.302 17762.364,2932.241C22176.147,2610.69 23675,221 26096,41C26333,14 26569,0 26799,0Z" style="fill:rgb(77,77,77);stroke:white;stroke-width:59.76px;"/>
                </g>
                <g transform="matrix(0.080037,0,0,0.079885,-30.872904,0)">
                    <path d="M16090.436,4718.922C16044.235,4726.89 15998.419,4734.586 15953,4742C15470.841,4820.561 15011.321,4848.196 14581.139,4838.45C12142.009,4783.192 13549.385,3459.425 14606.214,3292.292C19431.582,2529.178 23338.505,244.726 25324.535,97.065C25561.535,70.065 25797.535,56.065 26027.535,56.065C26485.535,54.065 27354.463,175.687 27354.463,175.687C27354.463,175.687 29037.343,323.706 30686.199,2032.008C31629.907,3009.741 32469.415,3774.759 33208.329,4384.323C33377.034,4523.495 33625.288,4604.336 33698.755,4778.211C34046.266,5600.662 28365.07,7292.297 28365.07,7292.297C28365.07,7292.297 19120.36,5696.186 16090.436,4718.922Z" style="fill:rgb(150,150,150);stroke:white;stroke-width:59.76px;"/>
                </g>
            </g>
            <g id="Sub">
                <g id="Sub-Outline" serif:id="Sub Outline">
                    <path id="Sub-Body" serif:id="Sub Body" d="M178.752,31.652C184.082,31.154 193.55,30.904 193.55,30.904C193.55,30.904 195.244,30.566 195.244,32.146C195.244,33.727 199.261,66.582 203.325,65.453C207.39,64.324 280.348,35.525 289.019,33.614C293.496,32.628 295.229,31.582 304.713,30.792C314.197,30.001 316.455,31.356 317.471,32.824C318.487,34.292 321.197,46.711 313.406,68.84C305.616,90.969 293.735,109.168 286.761,113.55C274.003,121.566 262.235,122.852 250.18,123.824C243.18,124.389 221.305,125.489 221.305,125.489C221.305,125.489 205.457,126.373 183.725,127.698C137.243,130.532 142.8,87.664 142.8,87.664L162.502,81.304C162.502,81.304 165.099,79.98 164.647,76.612C164.195,73.243 161.824,40.727 161.824,40.727C161.824,40.727 161.824,39.598 163.857,37.904C165.095,36.873 167.966,35.129 170.966,33.77L165.704,2.37C165.704,2.37 165.504,-0.571 168.979,-0.972C172.455,-1.373 176.116,-1.551 177,-0.972C178.087,-0.26 178.815,0.695 178.955,1.906C179.064,2.855 179.066,3.973 178.479,5.177C177.142,7.917 173.19,6.447 173.19,6.447L178.752,31.652Z" style="stroke:white;stroke-width:1px;stroke-linecap:round;stroke-miterlimit:1.5;"/>
                </g>
                <g id="Accents">
                    <g transform="matrix(1,0,0,1,-2,-1)">
                        <path d="M180.324,74.571C180.324,74.571 198.438,68.151 199.75,66.92C200.67,66.057 200.852,64.684 199.75,62.516C198.647,60.348 196.018,56.808 195.901,62.516C195.829,66.057 195.034,66.852 191.855,68.586C188.675,70.32 180.324,74.571 180.324,74.571Z" style="fill:white;stroke:white;stroke-width:1px;stroke-linecap:round;stroke-miterlimit:1.5;"/>
                    </g>
                    <g transform="matrix(1.156208,0,0,1.156208,-12.090946,-8.07559)">
                        <circle cx="161.886" cy="9.497" r="1.68" style="fill:white;"/>
                    </g>
                    <g transform="matrix(1,0,0,1,-0.66129,0.66129)">
                        <path d="M236.53,119.235C236.53,119.235 252.613,116.243 277.113,98.63C301.613,81.017 313.445,53.038 310.958,61.111C307.459,72.466 292.842,99.375 287.132,105.601C277.112,116.524 248.23,119.47 236.53,119.235Z" style="fill:white;stroke:white;stroke-width:1px;stroke-linecap:round;stroke-miterlimit:1.5;"/>
                    </g>
                </g>
            </g>
            <g transform="matrix(1,0,0,1,-35.666723,-24.460922)">
                <path d="M470.008,93.882C475.089,90.782 470.846,102.464 469.241,106.281C451.527,148.422 398.308,175.084 314.454,178.152C230.599,181.22 173.589,131.378 131.15,131.634C88.712,131.889 33.618,181.859 42.694,165.114C56.537,139.572 95.866,96.264 132.993,92.921C177.477,88.916 249.518,139.804 309.596,141.082C369.675,142.36 457.171,101.714 470.008,93.882Z" style="fill:rgb(202,238,251);stroke:white;stroke-width:1px;stroke-linecap:round;stroke-miterlimit:1.5;"/>
            </g>
            <g transform="matrix(1,0,0,1,-35.666723,-24.460922)">
                <path d="M470.786,97.184C473.335,91.905 470.952,100.1 469.588,104.01C454.648,146.832 398.173,174.542 314.318,177.61C230.464,180.678 173.632,130.814 131.194,131.07C99.911,131.258 62.603,157.838 43.905,167.799C40.161,169.793 101.608,115.051 132.993,118.921C195.188,126.59 230.791,166.082 309.596,166.082C385.462,166.082 453.389,133.206 470.786,97.184Z" style="fill:rgb(33,95,154);stroke:white;stroke-opacity:0;stroke-width:1px;stroke-linecap:round;stroke-miterlimit:1.5;"/>
            </g>
            <g transform="matrix(1,0,0,1,-35.666723,-24.460922)">
                <path d="M468.958,95.061C472.322,93.009 472.117,93.654 470.109,96.853C466.303,102.917 404.037,150.875 314.454,154.152C250.212,156.502 189.353,107.507 131.15,107.634C86.594,107.73 35.358,179.868 43.329,165.162C57.171,139.621 95.98,96.883 133.107,93.54C177.591,89.535 249.549,140.335 309.628,141.614C369.706,142.892 457.414,102.104 468.958,95.061Z" style="fill:rgb(51,135,196);stroke:white;stroke-opacity:0;stroke-width:1px;stroke-linecap:round;stroke-miterlimit:1.5;"/>
            </g>
        </g>
    </g>
</svg>
