<?xml version="1.0" encoding="UTF-8" standalone="no"?>
<!DOCTYPE svg PUBLIC "-//W3C//DTD SVG 1.1//EN" "http://www.w3.org/Graphics/SVG/1.1/DTD/svg11.dtd">
<svg width="100%" height="100%" viewBox="0 0 477 151" version="1.1" xmlns="http://www.w3.org/2000/svg" xmlns:xlink="http://www.w3.org/1999/xlink" xml:space="preserve" xmlns:serif="http://www.serif.com/" style="fill-rule:evenodd;clip-rule:evenodd;stroke-linejoin:round;stroke-miterlimit:2;">
    <g transform="matrix(1,0,0,1,-22.544174,-22.618348)">
        <g id="New-Logo" serif:id="New Logo" transform="matrix(1,0,0,1,35.666723,24.460922)">
            <g id="Back-Waves" serif:id="Back Waves" transform="matrix(0.194345,0,0,0.223274,-111.068546,17.889122)">
                <g transform="matrix(1,0,0,1,-452.802598,22.394032)">
                    <g transform="matrix(0.080037,0,0,0.079885,0,0)">
                        <path d="M24402,1413L28409,1413L30583.225,2802.973L33314.845,4923.567L35652.334,6606.285L37937.845,7011.971L28559.581,7011.971C28559.581,7011.971 12360,4529 15566,4048C18772,3567 21218,2087 23423,1635C23699,1579 23973,1516 24243,1452L24402,1413Z" style="fill:rgb(172,141,18);"/>
                    </g>
                    <g transform="matrix(0.080037,0,0,0.079885,-10.290968,0)">
                        <path d="M26799,0C27257,-2 27686,46 28034,141C28034,141 30253.489,852.024 31136.22,2088.074C32202.666,3581.371 34245.33,5275.171 35200.055,5683.313C36275.63,6143.118 38057.544,7011.971 38057.544,7011.971L36043.825,7012.017C36043.825,7012.017 29989.15,3078.667 28396,2173C27826.034,1848.988 27097.084,1722.434 26455,1855C24381.167,2283.167 25707.54,3147.028 22491.54,3672.028C19275.54,4196.028 16979.1,2989.302 17762.364,2932.241C22176.147,2610.69 23675,221 26096,41C26333,14 26569,0 26799,0Z" style="fill:rgb(77,77,77);stroke:white;stroke-width:59.76px;"/>
                    </g>
                </g>
                <g transform="matrix(0.080037,0,0,0.079885,-30.872904,0)">
                    <path d="M16090.436,4718.922C16044.235,4726.89 15998.419,4734.586 15953,4742C12737,5266 10528.218,3524.387 11314.09,3536.336C17628.09,3632.336 22903.535,277.065 25324.535,97.065C25561.535,70.065 25797.535,56.065 26027.535,56.065C26485.535,54.065 27354.463,175.687 27354.463,175.687C27354.463,175.687 29037.343,323.706 30686.199,2032.008C34579.413,6065.585 36699.196,6478.922 37298.884,7292.344L36173.828,7289.552L28365.07,7292.297C28365.07,7292.297 19120.36,5696.186 16090.436,4718.922Z" style="fill:rgb(150,150,150);stroke:white;stroke-width:59.76px;"/>
                </g>
            </g>
            <g id="Sub">
                <g id="Sub-Outline" serif:id="Sub Outline">
                    <path id="Sub-Body" serif:id="Sub Body" d="M178.752,31.652C184.082,31.154 193.55,30.904 193.55,30.904C193.55,30.904 195.244,30.566 195.244,32.146C195.244,33.727 199.261,66.582 203.325,65.453C207.39,64.324 280.348,35.525 289.019,33.614C293.496,32.628 295.229,31.582 304.713,30.792C314.197,30.001 316.455,31.356 317.471,32.824C318.487,34.292 321.197,46.711 313.406,68.84C305.616,90.969 293.735,109.168 286.761,113.55C274.003,121.566 262.235,122.852 250.18,123.824C243.18,124.389 221.305,125.489 221.305,125.489C221.305,125.489 65.155,134.192 61.037,137.941C56.918,141.69 68.905,111.518 68.905,111.518L162.502,81.304C162.502,81.304 165.099,79.98 164.647,76.612C164.195,73.243 161.824,40.727 161.824,40.727C161.824,40.727 161.824,39.598 163.857,37.904C165.095,36.873 167.966,35.129 170.966,33.77L165.704,2.37C165.704,2.37 165.504,-0.571 168.979,-0.972C172.455,-1.373 176.116,-1.551 177,-0.972C178.087,-0.26 178.815,0.695 178.955,1.906C179.064,2.855 179.066,3.973 178.479,5.177C177.142,7.917 173.19,6.447 173.19,6.447L178.752,31.652Z" style="stroke:white;stroke-width:1px;stroke-linecap:round;stroke-miterlimit:1.5;"/>
                </g>
                <g id="Accents">
                    <g transform="matrix(1,0,0,1,-2,-1)">
                        <path d="M180.324,74.571C180.324,74.571 198.438,68.151 199.75,66.92C200.67,66.057 200.852,64.684 199.75,62.516C198.647,60.348 196.018,56.808 195.901,62.516C195.829,66.057 195.034,66.852 191.855,68.586C188.675,70.32 180.324,74.571 180.324,74.571Z" style="fill:white;stroke:white;stroke-width:1px;stroke-linecap:round;stroke-miterlimit:1.5;"/>
                    </g>
                    <g transform="matrix(1.156208,0,0,1.156208,-12.090946,-8.07559)">
                        <circle cx="161.886" cy="9.497" r="1.68" style="fill:white;"/>
                    </g>
                    <g transform="matrix(1,0,0,1,-0.66129,0.66129)">
                        <path d="M236.53,119.235C236.53,119.235 252.613,116.243 277.113,98.63C301.613,81.017 313.445,53.038 310.958,61.111C307.459,72.466 292.842,99.375 287.132,105.601C277.112,116.524 248.23,119.47 236.53,119.235Z" style="fill:white;stroke:white;stroke-width:1px;stroke-linecap:round;stroke-miterlimit:1.5;"/>
                    </g>
                </g>
            </g>
            <g id="Front-Waves" serif:id="Front Waves" transform="matrix(0.194345,0,0,0.223274,-90.068546,17.889122)">
                <g transform="matrix(0.080037,0,0,0.079885,0,0)">
                    <path d="M12759.711,3646.119C13365.711,3648.119 14469.286,3893.872 15203.286,4019.872C17158.286,4354.872 18920,5321 20886,5668C22851,6016 24622,5688 25991,5535C26846,5439 27630,5041 28233,4829L28417,4773L30212.482,5292.679L32238.876,5959.602L34542.841,7292.297L31744.042,7294.968L28417,7177L9678,7292.297L5382.893,7292.297C5382.893,7292.297 6566.808,6034.049 7047.482,5487.93C7580.905,4881.88 8404.422,4038.119 10227.422,3646.119C11366.422,3401.119 11750.711,3642.119 12759.711,3646.119Z" style="fill:rgb(202,238,251);stroke:white;stroke-width:59.76px;"/>
                </g>
                <g transform="matrix(0.080037,0,0,0.079885,0,0)">
                    <path d="M12674.71,2697.274C13404.831,2813.766 14949.966,3408.79 14949.966,3408.79C14949.966,3408.79 20390.291,5076.216 23494.291,5110.216C26002.39,5138.843 26941.387,4929.744 28017.11,4693.937C28517.439,4584.261 28864.94,4496.787 30137.323,4761.994C30732.986,4886.15 31502.145,5223.987 32006.327,5488.813C32803.645,5907.612 35388.465,7301.634 34908.679,7292.297L33735.712,7292.297C33735.712,7292.297 33653.762,7066.967 33376.817,6918.91C32768.46,6593.678 32619.807,6507.692 31714.839,6104.801C30747.335,5674.07 30035.955,5505.434 29432.365,5414.317C29029.092,5353.439 28561.736,5349.406 28018.093,5492.389C27205.072,5706.222 25541,5994 24089,6060C22429,6137 19676.111,6148.966 18703,5844.869C16895,5279.869 15124.333,4543.667 13509,4270C12135.827,4037.36 10545.404,3841.128 9292.648,4218.066C9196.702,4246.935 9102.736,4279.166 9011,4315C7721.486,4818.716 5771.916,7292.297 5771.916,7292.297L4978.908,7292.297C4978.908,7292.297 7929.2,4451.312 8926.624,3664.703C9531.522,3187.656 10019.237,2991.746 10513.387,2823.175C10972.292,2666.628 11788.433,2555.868 12674.71,2697.274Z" style="fill:rgb(51,135,196);stroke:white;stroke-width:59.76px;"/>
                </g>
                <g transform="matrix(0.080037,0,0,0.079885,0,0)">
                    <path d="M11117.436,5074.642C11600.436,5070.642 12329.759,5187.11 12747.759,5278.11C14973.759,5766.11 16095,6824 18187,7148C20280,7472 24429.134,6198.131 26215.134,6110.131C27331.134,6055.131 27706.697,6108.301 28365,6331C28993.028,6543.458 29340.227,6876.903 30304.709,7074.961C30748.964,7166.19 32629.921,7292.297 32629.921,7292.297L7553.351,7292.297L6411.559,7289C6411.559,7289 7021.171,6381.707 7661.441,6019.397C8409.049,5596.349 9024.436,5092.642 11117.436,5074.642Z" style="fill:rgb(33,95,154);stroke:white;stroke-width:59.76px;"/>
                </g>
            </g>
        </g>
    </g>
</svg>
