<svg version="1.1" viewBox="0.000000 0.000000 55.000000 54.540000" xmlns="http://www.w3.org/2000/svg" xmlns:xlink="http://www.w3.org/1999/xlink" id="Layer_1" overflow="hidden"><defs></defs><path d=" M 33.540001 54.480000 C 33.540001 54.480000 36.320000 53.290001 37.840000 48.700001 C 38.659462 50.474827 39.004036 52.432022 38.840000 54.380001 C 37.081654 54.545658 35.313351 54.579086 33.549999 54.480000" fill="#A60F2D"/><path d=" M 48.480000 28.180000 C 48.480000 28.180000 50.169998 37.419998 44.169998 37.740002 C 38.380001 38.040001 35.639999 29.320000 35.639999 29.320000 C 35.639999 29.320000 37.040001 46.320000 45.160000 45.240002 C 54.310001 43.970001 48.480000 28.180000 48.480000 28.180000" fill="#A60F2D"/><path d=" M 4.350000 52.279999 L 4.350000 52.279999 C 11.130000 50.740002 16.350000 42.830002 17.830000 39.650002 L 18.830000 37.650002 L 19.420000 39.810001 C 19.857571 41.651337 20.079065 43.537392 20.080000 45.430000 C 20.080000 45.779999 20.080000 46.139999 20.080000 46.490002 C 22.420000 46.580002 24.080000 46.110001 25.080000 45.040001 C 26.570000 43.490002 27.020000 40.580002 26.459999 36.119999 C 26.190001 33.980000 25.400000 30.590000 24.700001 27.590000 C 24.340000 26.059999 24.010000 24.590000 23.799999 23.590000 C 22.490000 17.000000 24.110001 13.000000 25.700001 10.710000 C 25.950594 10.361404 26.221041 10.027519 26.510000 9.710000 C 21.696499 11.341407 17.349398 14.113670 13.840000 17.790001 L 16.690001 21.100000 L 17.850000 20.000000 C 18.504715 22.579271 18.610329 25.267311 18.160000 27.889999 C 17.183636 26.423923 16.090055 25.039391 14.889999 23.750000 L 15.670000 22.440001 L 13.100000 19.440001 L 12.800000 19.100000 C 10.996334 21.496449 9.582265 24.162594 8.610001 27.000000 L 10.860000 29.000000 L 12.170000 30.190001 L 12.600000 29.000000 C 14.007208 31.722546 14.088290 34.940033 12.820001 37.730000 C 12.323562 36.377670 11.651109 35.096649 10.820001 33.919998 L 11.440000 31.850000 L 8.110000 28.850000 C 4.650000 39.680000 0.000000 43.200001 0.000000 43.200001 C 2.637741 42.727173 5.248170 42.112953 7.820000 41.360001 C 7.610862 45.235874 6.416549 48.994347 4.350000 52.279999" fill="#A60F2D"/><path d=" M 55.000000 13.150000 L 47.000000 13.490000 C 47.013546 14.444827 46.864761 15.395015 46.560001 16.299999 C 47.034306 17.941320 47.116512 19.671095 46.800003 21.349998 C 45.459999 18.219999 44.430000 17.350000 44.430000 17.350000 C 37.080002 14.080000 32.939999 21.480000 33.430000 26.240000 C 33.790001 30.170000 35.209999 35.369999 36.330002 43.529999 C 37.259998 50.400002 33.779999 53.369999 29.780001 54.049999 L 29.520000 54.049999 L 29.459999 54.049999 C 28.773916 54.140118 28.081573 54.173565 27.389999 54.149998 L 27.000000 54.150002 L 26.070000 54.060001 C 20.356569 53.096340 14.588797 52.488506 8.799999 52.240002 C 13.040000 49.759998 16.350000 45.490002 18.200001 42.450001 C 18.322598 43.445366 18.386042 44.447124 18.390001 45.450001 C 18.389999 46.020000 18.389999 46.610001 18.309999 47.220001 L 18.250000 48.040001 L 19.080000 48.110001 C 22.389999 48.400002 24.740000 47.770000 26.260000 46.180000 C 28.150000 44.180000 28.730000 40.959999 28.090000 35.910000 C 27.820000 33.689999 27.010000 30.250000 26.309999 27.219999 C 25.950001 25.700001 25.620001 24.219999 25.420000 23.219999 C 24.230000 17.219999 25.650000 13.630000 27.049999 11.640000 C 28.098522 10.128523 29.601112 8.990197 31.340000 8.390000 L 31.420000 8.390000 L 34.160000 0.000000 L 35.000000 0.000000 L 33.180000 8.080000 L 34.480000 7.860000 L 36.830002 0.420000 L 37.689999 0.420000 L 36.139999 7.630000 C 38.590000 7.320000 41.240002 7.070000 44.139999 6.850000 C 44.755276 7.204314 45.255268 7.728611 45.579998 8.360000 L 53.340000 6.000000 L 53.610001 6.830000 L 46.250000 9.690000 C 46.310001 9.840000 46.360001 10.000000 46.419998 10.150000 L 54.480000 9.150000 L 54.610001 10.020000 L 46.779999 11.580000 C 46.813068 11.724951 46.836456 11.871943 46.849998 12.020000 L 55.000000 12.280000 Z M 31.770000 16.760000 C 33.847767 15.419120 36.302689 14.784348 38.770000 14.950000 C 39.419998 15.000000 39.970001 14.830000 39.270000 14.450000 C 37.340000 13.450000 32.840000 13.780000 31.270000 14.870000 C 29.713772 15.988366 28.917599 17.886038 29.210001 19.780001 C 29.867155 18.607033 30.763126 17.585012 31.840000 16.780001" fill="#A60F2D"/></svg>