<?xml version="1.0" encoding="UTF-8"?>
<svg width="2001px" height="394px" viewBox="0 0 2001 394" version="1.1" xmlns="http://www.w3.org/2000/svg" xmlns:xlink="http://www.w3.org/1999/xlink">
    <title>Untitled</title>
    <g id="Page-1" stroke="none" stroke-width="1" fill="none" fill-rule="evenodd">
        <g id="RealDigital-logo-color_on_dark" transform="translate(0.000000, 0.520000)" fill-rule="nonzero">
            <g id="Group" transform="translate(0.000000, 314.920000)" fill="#FFFFFF">
                <g>
                    <polygon id="Path" points="0 3.76 36.51 3.76 36.51 12.38 9.81 12.38 9.81 26.48 35.11 26.48 35.11 34.79 9.81 34.79 9.81 50.46 37.91 50.46 37.91 59.23 0 59.23"></polygon>
                    <polygon id="Path" points="41.57 0 50.91 0 50.91 59.24 41.57 59.24 41.57 0"></polygon>
                    <path d="M93.03,40.9 C93.03,41.32 93.03,41.74 93.03,42.15 C93.03,42.56 93,42.99 92.95,43.4 L64.54,43.4 C64.64,44.76 64.99,46 65.59,47.12 C66.18,48.24 66.98,49.21 67.96,50.02 C68.95,50.83 70.06,51.47 71.31,51.94 C72.55,52.41 73.85,52.65 75.2,52.65 C77.53,52.65 79.51,52.22 81.11,51.36 C82.72,50.5 84.04,49.31 85.08,47.79 L91.31,52.8 C87.63,57.81 82.28,60.32 75.27,60.32 C72.36,60.32 69.69,59.86 67.25,58.95 C64.81,58.04 62.7,56.74 60.91,55.07 C59.12,53.4 57.72,51.35 56.71,48.92 C55.7,46.49 55.19,43.73 55.19,40.65 C55.19,37.62 55.69,34.87 56.71,32.39 C57.72,29.91 59.11,27.79 60.88,26.04 C62.64,24.29 64.73,22.93 67.15,21.96 C69.56,21 72.17,20.51 74.97,20.51 C77.57,20.51 79.96,20.94 82.17,21.8 C84.38,22.66 86.28,23.94 87.89,25.64 C89.5,27.34 90.76,29.45 91.67,31.99 C92.57,34.54 93.03,37.5 93.03,40.9 Z M83.69,36.67 C83.69,35.47 83.52,34.32 83.19,33.22 C82.85,32.12 82.32,31.16 81.6,30.32 C80.87,29.48 79.95,28.82 78.84,28.32 C77.72,27.82 76.41,27.58 74.91,27.58 C72.11,27.58 69.73,28.43 67.79,30.12 C65.84,31.82 64.76,34 64.56,36.67 L83.69,36.67 L83.69,36.67 Z" id="Shape"></path>
                    <path d="M124.48,32.04 C123.75,30.99 122.66,30.12 121.21,29.41 C119.76,28.71 118.28,28.35 116.77,28.35 C115.06,28.35 113.55,28.71 112.25,29.41 C110.95,30.12 109.87,31.04 109.02,32.19 C108.16,33.34 107.53,34.64 107.11,36.07 C106.69,37.5 106.49,38.95 106.49,40.42 C106.49,41.89 106.71,43.33 107.15,44.77 C107.59,46.2 108.25,47.5 109.13,48.65 C110.01,49.8 111.12,50.73 112.44,51.43 C113.76,52.14 115.31,52.49 117.07,52.49 C118.52,52.49 119.97,52.2 121.43,51.62 C122.88,51.05 124.05,50.21 124.93,49.11 L130.77,55.06 C129.21,56.73 127.23,58.03 124.81,58.94 C122.4,59.85 119.79,60.31 116.99,60.31 C114.24,60.31 111.63,59.86 109.17,58.98 C106.71,58.09 104.55,56.79 102.71,55.06 C100.87,53.34 99.41,51.25 98.35,48.79 C97.29,46.34 96.76,43.54 96.76,40.41 C96.76,37.38 97.29,34.64 98.35,32.18 C99.41,29.73 100.85,27.64 102.67,25.91 C104.49,24.18 106.6,22.85 109.01,21.91 C111.42,20.97 114,20.5 116.76,20.5 C119.51,20.5 122.17,21.03 124.74,22.07 C127.31,23.12 129.35,24.55 130.85,26.38 L124.48,32.04 Z" id="Path"></path>
                    <path d="M133.08,29.15 L133.08,21.63 L139.62,21.63 L139.62,10.73 L148.81,10.73 L148.81,21.63 L158.15,21.63 L158.15,29.15 L148.81,29.15 L148.81,46.62 C148.81,48.29 149.11,49.68 149.7,50.77 C150.3,51.87 151.63,52.42 153.71,52.42 C154.33,52.42 155.01,52.35 155.73,52.22 C156.46,52.09 157.1,51.89 157.68,51.63 L157.99,59 C157.16,59.31 156.17,59.56 155.03,59.74 C153.89,59.92 152.8,60.01 151.76,60.01 C149.27,60.01 147.24,59.66 145.69,58.95 C144.13,58.24 142.9,57.28 141.99,56.05 C141.08,54.82 140.46,53.41 140.12,51.82 C139.78,50.22 139.62,48.52 139.62,46.69 L139.62,29.14 L133.08,29.14 L133.08,29.15 Z" id="Path"></path>
                    <path d="M161.8,21.63 L170.75,21.63 L170.75,27.9 L170.9,27.9 C171.94,25.71 173.39,23.93 175.26,22.57 C177.13,21.21 179.31,20.53 181.8,20.53 C182.16,20.53 182.55,20.54 182.97,20.57 C183.39,20.6 183.75,20.66 184.06,20.76 L184.06,29.38 C183.44,29.22 182.91,29.12 182.47,29.07 C182.03,29.02 181.6,28.99 181.18,28.99 C179.05,28.99 177.34,29.38 176.04,30.17 C174.74,30.95 173.73,31.89 173,32.99 C172.27,34.09 171.78,35.21 171.52,36.36 C171.26,37.51 171.13,38.43 171.13,39.1 L171.13,59.24 L161.79,59.24 L161.79,21.63 L161.8,21.63 Z" id="Path"></path>
                    <path d="M187.64,8.85 C187.64,7.33 188.2,6.01 189.31,4.89 C190.43,3.77 191.84,3.21 193.55,3.21 C195.26,3.21 196.7,3.75 197.87,4.82 C199.04,5.89 199.62,7.24 199.62,8.86 C199.62,10.48 199.04,11.82 197.87,12.89 C196.7,13.97 195.26,14.5 193.55,14.5 C191.84,14.5 190.42,13.94 189.31,12.81 C188.2,11.69 187.64,10.37 187.64,8.85 Z M188.96,21.63 L198.3,21.63 L198.3,59.24 L188.96,59.24 L188.96,21.63 Z" id="Shape"></path>
                    <path d="M229.95,32.04 C229.22,30.99 228.13,30.12 226.68,29.41 C225.23,28.71 223.75,28.35 222.24,28.35 C220.53,28.35 219.02,28.71 217.72,29.41 C216.42,30.12 215.34,31.04 214.49,32.19 C213.63,33.34 213,34.64 212.58,36.07 C212.16,37.5 211.96,38.95 211.96,40.42 C211.96,41.89 212.18,43.33 212.62,44.77 C213.06,46.2 213.72,47.5 214.6,48.65 C215.48,49.8 216.59,50.73 217.91,51.43 C219.23,52.14 220.78,52.49 222.54,52.49 C223.99,52.49 225.44,52.2 226.9,51.62 C228.35,51.05 229.52,50.21 230.4,49.11 L236.24,55.06 C234.68,56.73 232.7,58.03 230.28,58.94 C227.87,59.85 225.26,60.31 222.46,60.31 C219.71,60.31 217.1,59.86 214.64,58.98 C212.18,58.09 210.02,56.79 208.18,55.06 C206.34,53.34 204.88,51.25 203.82,48.79 C202.76,46.34 202.23,43.54 202.23,40.41 C202.23,37.38 202.76,34.64 203.82,32.18 C204.88,29.73 206.32,27.64 208.14,25.91 C209.96,24.18 212.07,22.85 214.48,21.91 C216.89,20.97 219.47,20.5 222.23,20.5 C224.98,20.5 227.64,21.03 230.21,22.07 C232.78,23.12 234.82,24.55 236.32,26.38 L229.95,32.04 Z" id="Path"></path>
                    <path d="M263.2,54.45 L262.97,54.45 C262.03,56.12 260.53,57.49 258.45,58.57 C256.37,59.64 254.01,60.18 251.37,60.18 C249.86,60.18 248.29,59.99 246.66,59.59 C245.03,59.2 243.52,58.55 242.15,57.63 C240.77,56.72 239.63,55.51 238.72,54.03 C237.81,52.54 237.36,50.7 237.36,48.5 C237.36,45.68 238.15,43.43 239.74,41.76 C241.32,40.09 243.36,38.81 245.85,37.92 C248.34,37.03 251.11,36.45 254.14,36.16 C257.18,35.87 260.15,35.73 263.05,35.73 L263.05,34.79 C263.05,32.44 262.21,30.7 260.52,29.58 C258.83,28.46 256.82,27.89 254.49,27.89 C252.52,27.89 250.62,28.31 248.81,29.14 C246.99,29.98 245.49,30.99 244.3,32.19 L239.47,26.47 C241.6,24.49 244.05,23 246.83,22 C249.61,21 252.42,20.51 255.27,20.51 C258.59,20.51 261.33,20.98 263.48,21.92 C265.64,22.86 267.33,24.09 268.58,25.6 C269.82,27.12 270.69,28.82 271.19,30.69 C271.68,32.57 271.93,34.45 271.93,36.33 L271.93,59.21 L263.21,59.21 L263.21,54.45 L263.2,54.45 Z M263.05,42.07 L260.95,42.07 C259.44,42.07 257.86,42.14 256.2,42.26 C254.54,42.39 253.01,42.68 251.61,43.13 C250.21,43.57 249.04,44.2 248.11,45.01 C247.18,45.82 246.71,46.93 246.71,48.34 C246.71,49.23 246.91,49.97 247.29,50.57 C247.68,51.17 248.19,51.65 248.81,52.02 C249.43,52.38 250.13,52.65 250.91,52.8 C251.69,52.95 252.47,53.03 253.25,53.03 C256.47,53.03 258.91,52.17 260.57,50.45 C262.23,48.72 263.06,46.37 263.06,43.4 L263.06,42.07 L263.05,42.07 Z" id="Shape"></path>
                    <polygon id="Path" points="277.72 0 287.06 0 287.06 59.24 277.72 59.24"></polygon>
                </g>
                <path d="M348.12,46 L360.96,59.24 L348.5,59.24 L342.43,52.89 C340.61,55.04 338.41,56.81 335.81,58.22 C333.21,59.63 329.92,60.34 325.92,60.34 C323.48,60.34 321.15,60 318.92,59.32 C316.69,58.64 314.73,57.62 313.04,56.27 C311.35,54.92 310.01,53.23 308.99,51.22 C307.98,49.21 307.47,46.87 307.47,44.21 C307.47,42.17 307.81,40.33 308.49,38.68 C309.17,37.04 310.07,35.56 311.19,34.25 C312.31,32.95 313.59,31.82 315.02,30.88 C316.45,29.94 317.95,29.13 319.52,28.45 C317.69,26.57 316.24,24.63 315.16,22.61 C314.08,20.6 313.55,18.39 313.55,15.99 C313.55,13.64 314,11.6 314.91,9.88 C315.82,8.16 317.01,6.73 318.49,5.61 C319.97,4.49 321.63,3.66 323.47,3.14 C325.31,2.62 327.19,2.36 329.11,2.36 C331.08,2.36 332.99,2.63 334.83,3.18 C336.67,3.73 338.29,4.57 339.7,5.69 C341.1,6.81 342.23,8.22 343.09,9.92 C343.95,11.62 344.38,13.59 344.38,15.84 C344.38,17.62 344.08,19.24 343.48,20.73 C342.88,22.22 342.08,23.58 341.07,24.81 C340.06,26.04 338.86,27.12 337.49,28.06 C336.11,29 334.65,29.84 333.09,30.57 L342.12,40.05 L348.5,29.94 L359.17,29.94 L348.12,46 Z M324.77,34.48 C323.73,34.84 322.76,35.29 321.85,35.81 C320.94,36.34 320.14,36.96 319.44,37.69 C318.74,38.42 318.18,39.3 317.77,40.32 C317.35,41.34 317.15,42.5 317.15,43.81 C317.15,45.17 317.42,46.39 317.97,47.49 C318.51,48.58 319.23,49.5 320.11,50.23 C320.99,50.96 321.98,51.52 323.07,51.92 C324.16,52.31 325.22,52.51 326.26,52.51 C328.54,52.51 330.49,52.01 332.1,51.02 C333.71,50.03 335.19,48.62 336.54,46.79 L324.77,34.48 Z M329.32,9.95 C327.51,9.95 325.99,10.53 324.75,11.68 C323.51,12.83 322.89,14.32 322.89,16.15 C322.89,17.72 323.31,19.23 324.17,20.69 C325.02,22.15 326.22,23.59 327.77,25 C328.85,24.53 329.87,24.01 330.83,23.43 C331.78,22.86 332.62,22.2 333.34,21.47 C334.06,20.74 334.63,19.93 335.04,19.04 C335.45,18.15 335.66,17.19 335.66,16.14 C335.66,14.47 335.07,13.02 333.88,11.79 C332.7,10.56 331.18,9.95 329.32,9.95 Z" id="Shape"></path>
                <g transform="translate(375.700000, 2.350000)">
                    <path d="M42.41,14.42 C40.96,12.44 39.06,10.99 36.73,10.07 C34.39,9.16 32.11,8.7 29.88,8.7 C27.03,8.7 24.43,9.22 22.1,10.27 C19.76,11.32 17.75,12.75 16.07,14.58 C14.38,16.41 13.08,18.55 12.18,21.01 C11.27,23.47 10.82,26.13 10.82,29 C10.82,32.03 11.26,34.8 12.14,37.31 C13.02,39.82 14.28,41.97 15.91,43.77 C17.55,45.57 19.5,46.97 21.79,47.96 C24.07,48.95 26.64,49.45 29.5,49.45 C32.46,49.45 35.08,48.86 37.36,47.68 C39.64,46.51 41.49,44.95 42.89,43.02 L50.75,48.58 C48.31,51.66 45.33,54.06 41.8,55.75 C38.27,57.45 34.14,58.3 29.42,58.3 C25.11,58.3 21.15,57.58 17.55,56.15 C13.94,54.72 10.84,52.7 8.25,50.12 C5.65,47.53 3.63,44.45 2.18,40.87 C0.73,37.29 -5.68434189e-14,33.34 -5.68434189e-14,29 C-5.68434189e-14,24.56 0.76,20.55 2.3,16.97 C3.83,13.39 5.93,10.35 8.61,7.84 C11.28,5.33 14.44,3.4 18.07,2.04 C21.7,0.68 25.65,-1.13686838e-13 29.9,-1.13686838e-13 C31.66,-1.13686838e-13 33.51,0.17 35.43,0.51 C37.35,0.85 39.19,1.37 40.96,2.08 C42.72,2.79 44.39,3.66 45.94,4.7 C47.5,5.75 48.82,7 49.91,8.46 L42.41,14.42 Z" id="Path"></path>
                    <path d="M50.12,37.92 C50.12,34.94 50.65,32.24 51.71,29.81 C52.77,27.38 54.21,25.31 56.03,23.58 C57.85,21.85 60,20.52 62.49,19.58 C64.98,18.64 67.63,18.17 70.43,18.17 C73.23,18.17 75.88,18.64 78.37,19.58 C80.86,20.52 83.01,21.85 84.83,23.58 C86.65,25.3 88.09,27.38 89.15,29.81 C90.21,32.24 90.75,34.94 90.75,37.92 C90.75,40.9 90.22,43.61 89.15,46.07 C88.09,48.53 86.65,50.63 84.83,52.38 C83.01,54.13 80.86,55.5 78.37,56.49 C75.88,57.48 73.23,57.98 70.43,57.98 C67.63,57.98 64.98,57.48 62.49,56.49 C60,55.5 57.85,54.13 56.03,52.38 C54.21,50.63 52.77,48.53 51.71,46.07 C50.65,43.62 50.12,40.9 50.12,37.92 Z M59.62,37.92 C59.62,39.38 59.84,40.84 60.28,42.31 C60.72,43.77 61.38,45.08 62.27,46.23 C63.15,47.38 64.27,48.32 65.62,49.05 C66.97,49.78 68.58,50.15 70.45,50.15 C72.32,50.15 73.92,49.79 75.28,49.05 C76.63,48.32 77.74,47.38 78.63,46.23 C79.51,45.08 80.17,43.77 80.62,42.31 C81.06,40.85 81.28,39.38 81.28,37.92 C81.28,36.46 81.06,35.01 80.62,33.57 C80.18,32.13 79.52,30.84 78.63,29.69 C77.75,28.54 76.63,27.61 75.28,26.91 C73.93,26.2 72.32,25.85 70.45,25.85 C68.58,25.85 66.97,26.2 65.62,26.91 C64.27,27.62 63.16,28.54 62.27,29.69 C61.39,30.84 60.72,32.13 60.28,33.57 C59.84,35.01 59.62,36.46 59.62,37.92 Z" id="Shape"></path>
                    <path d="M140.56,18.18 C143,18.18 145.09,18.61 146.83,19.47 C148.57,20.33 150,21.47 151.11,22.88 C152.23,24.29 153.04,25.91 153.56,27.73 C154.08,29.56 154.34,31.44 154.34,33.37 L154.34,56.88 L145,56.88 L145,36.04 C145,34.94 144.92,33.79 144.77,32.59 C144.61,31.39 144.27,30.3 143.76,29.34 C143.24,28.37 142.53,27.57 141.62,26.95 C140.71,26.32 139.5,26.01 138,26.01 C136.55,26.01 135.3,26.32 134.26,26.95 C133.22,27.58 132.37,28.39 131.69,29.38 C131.01,30.37 130.52,31.48 130.21,32.71 C129.9,33.94 129.74,35.15 129.74,36.35 L129.74,56.88 L120.4,56.88 L120.4,34.15 C120.4,31.8 119.84,29.85 118.73,28.31 C117.61,26.77 115.86,26 113.47,26 C112.07,26 110.85,26.3 109.81,26.9 C108.77,27.5 107.93,28.27 107.28,29.21 C106.63,30.15 106.14,31.24 105.8,32.46 C105.46,33.69 105.3,34.93 105.3,36.18 L105.3,56.87 L95.96,56.87 L95.96,19.26 L104.83,19.26 L104.83,25.29 L104.98,25.29 C105.4,24.35 105.95,23.46 106.65,22.62 C107.35,21.79 108.18,21.03 109.14,20.35 C110.1,19.67 111.2,19.13 112.45,18.74 C113.69,18.35 115.07,18.15 116.58,18.15 C119.48,18.15 121.9,18.81 123.82,20.11 C125.74,21.41 127.22,23.14 128.26,25.28 C129.51,22.98 131.17,21.22 133.24,19.99 C135.32,18.79 137.76,18.18 140.56,18.18 Z" id="Path"></path>
                    <path d="M169.65,19.28 L169.65,24.53 L169.88,24.53 C170.35,23.8 170.96,23.06 171.71,22.3 C172.46,21.54 173.38,20.87 174.47,20.26 C175.56,19.66 176.79,19.16 178.17,18.77 C179.54,18.38 181.09,18.18 182.8,18.18 C185.45,18.18 187.88,18.69 190.12,19.71 C192.35,20.73 194.27,22.13 195.88,23.9 C197.49,25.68 198.73,27.77 199.62,30.17 C200.5,32.57 200.94,35.16 200.94,37.93 C200.94,40.7 200.51,43.3 199.65,45.72 C198.79,48.15 197.57,50.27 195.99,52.07 C194.4,53.87 192.49,55.31 190.23,56.38 C187.97,57.45 185.41,57.99 182.56,57.99 C179.91,57.99 177.49,57.44 175.28,56.34 C173.07,55.25 171.37,53.76 170.18,51.87 L170.03,51.87 L170.03,75.69 L160.69,75.69 L160.69,19.28 L169.65,19.28 Z M191.45,37.92 C191.45,36.46 191.23,35.01 190.79,33.57 C190.35,32.13 189.69,30.84 188.8,29.69 C187.92,28.54 186.8,27.61 185.45,26.91 C184.1,26.2 182.52,25.85 180.7,25.85 C178.99,25.85 177.46,26.21 176.11,26.94 C174.76,27.67 173.6,28.61 172.65,29.76 C171.69,30.91 170.96,32.22 170.47,33.68 C169.98,35.14 169.73,36.6 169.73,38.07 C169.73,39.54 169.98,40.98 170.47,42.42 C170.96,43.86 171.69,45.15 172.65,46.3 C173.61,47.45 174.76,48.38 176.11,49.08 C177.46,49.79 178.99,50.14 180.7,50.14 C182.51,50.14 184.1,49.78 185.45,49.04 C186.8,48.31 187.91,47.37 188.8,46.22 C189.68,45.07 190.34,43.76 190.79,42.3 C191.23,40.85 191.45,39.38 191.45,37.92 Z" id="Shape"></path>
                    <path d="M239.89,56.89 L231.02,56.89 L231.02,50.86 L230.87,50.86 C230.04,52.74 228.6,54.4 226.55,55.84 C224.5,57.27 222.07,57.99 219.27,57.99 C216.83,57.99 214.74,57.56 213,56.7 C211.26,55.84 209.83,54.7 208.72,53.29 C207.6,51.88 206.78,50.26 206.27,48.43 C205.75,46.6 205.49,44.72 205.49,42.79 L205.49,19.29 L214.83,19.29 L214.83,40.13 C214.83,41.22 214.91,42.38 215.06,43.57 C215.21,44.78 215.55,45.86 216.07,46.82 C216.59,47.79 217.3,48.58 218.21,49.21 C219.12,49.84 220.32,50.15 221.83,50.15 C223.28,50.15 224.57,49.85 225.68,49.25 C226.8,48.65 227.7,47.88 228.41,46.94 C229.12,46 229.64,44.92 230.01,43.69 C230.37,42.46 230.55,41.22 230.55,39.96 L230.55,19.28 L239.89,19.28 L239.89,56.89 L239.89,56.89 Z" id="Path"></path>
                    <path d="M243.68,26.8 L243.68,19.28 L250.22,19.28 L250.22,8.38 L259.41,8.38 L259.41,19.28 L268.75,19.28 L268.75,26.8 L259.41,26.8 L259.41,44.27 C259.41,45.94 259.71,47.33 260.3,48.42 C260.9,49.52 262.23,50.07 264.31,50.07 C264.93,50.07 265.61,50 266.33,49.87 C267.06,49.74 267.7,49.54 268.28,49.28 L268.59,56.65 C267.76,56.96 266.77,57.21 265.63,57.39 C264.49,57.57 263.4,57.66 262.36,57.66 C259.87,57.66 257.84,57.31 256.29,56.6 C254.73,55.89 253.5,54.93 252.59,53.7 C251.68,52.47 251.06,51.06 250.72,49.47 C250.38,47.87 250.21,46.17 250.21,44.34 L250.21,26.79 L243.68,26.79 L243.68,26.8 Z" id="Path"></path>
                    <path d="M309.13,38.55 C309.13,38.97 309.13,39.39 309.13,39.8 C309.13,40.21 309.1,40.64 309.05,41.05 L280.64,41.05 C280.74,42.41 281.09,43.65 281.69,44.77 C282.28,45.89 283.08,46.86 284.06,47.67 C285.05,48.48 286.16,49.12 287.41,49.59 C288.65,50.06 289.95,50.3 291.3,50.3 C293.63,50.3 295.61,49.87 297.21,49.01 C298.81,48.15 300.14,46.96 301.18,45.44 L307.41,50.45 C303.73,55.46 298.38,57.97 291.37,57.97 C288.46,57.97 285.79,57.51 283.35,56.6 C280.91,55.69 278.8,54.39 277.01,52.72 C275.22,51.05 273.82,49 272.81,46.57 C271.8,44.14 271.29,41.38 271.29,38.3 C271.29,35.27 271.79,32.52 272.81,30.04 C273.83,27.56 275.21,25.44 276.98,23.69 C278.74,21.94 280.83,20.58 283.25,19.61 C285.66,18.65 288.27,18.16 291.07,18.16 C293.66,18.16 296.06,18.59 298.27,19.45 C300.48,20.31 302.38,21.59 303.99,23.29 C305.6,24.99 306.86,27.1 307.77,29.64 C308.67,32.19 309.13,35.15 309.13,38.55 Z M299.79,34.32 C299.79,33.12 299.62,31.97 299.28,30.87 C298.94,29.77 298.41,28.81 297.69,27.97 C296.96,27.13 296.04,26.47 294.93,25.97 C293.81,25.47 292.5,25.23 291,25.23 C288.2,25.23 285.82,26.08 283.88,27.77 C281.93,29.47 280.85,31.65 280.65,34.32 L299.79,34.32 L299.79,34.32 Z" id="Shape"></path>
                    <path d="M315.05,19.28 L324,19.28 L324,25.55 L324.15,25.55 C325.19,23.36 326.64,21.58 328.51,20.22 C330.38,18.86 332.56,18.18 335.05,18.18 C335.41,18.18 335.8,18.19 336.22,18.22 C336.64,18.25 337,18.31 337.31,18.41 L337.31,27.03 C336.69,26.87 336.16,26.77 335.72,26.72 C335.28,26.67 334.85,26.64 334.43,26.64 C332.3,26.64 330.59,27.03 329.29,27.82 C327.99,28.6 326.98,29.54 326.25,30.64 C325.52,31.74 325.03,32.86 324.77,34.01 C324.51,35.16 324.38,36.08 324.38,36.75 L324.38,56.89 L315.04,56.89 L315.04,19.28 L315.05,19.28 Z" id="Path"></path>
                </g>
                <g transform="translate(734.860000, 3.210000)">
                    <polygon id="Path" points="-1.13686838e-13 0.55 36.51 0.55 36.51 9.17 9.81 9.17 9.81 23.27 35.11 23.27 35.11 31.58 9.81 31.58 9.81 47.25 37.91 47.25 37.91 56.02 -1.13686838e-13 56.02"></polygon>
                    <path d="M42.12,18.42 L50.99,18.42 L50.99,24.45 L51.14,24.45 C51.97,22.57 53.41,20.91 55.46,19.47 C57.51,18.04 59.94,17.32 62.74,17.32 C65.18,17.32 67.27,17.75 69.01,18.61 C70.75,19.47 72.18,20.61 73.29,22.02 C74.4,23.43 75.22,25.05 75.74,26.87 C76.26,28.7 76.52,30.58 76.52,32.51 L76.52,56.02 L67.18,56.02 L67.18,35.18 C67.18,34.08 67.1,32.93 66.95,31.73 C66.8,30.53 66.46,29.44 65.94,28.48 C65.42,27.51 64.71,26.71 63.8,26.09 C62.89,25.46 61.69,25.15 60.18,25.15 C58.67,25.15 57.38,25.45 56.29,26.05 C55.2,26.65 54.31,27.42 53.61,28.36 C52.91,29.3 52.38,30.39 52.01,31.61 C51.64,32.83 51.47,34.08 51.47,35.33 L51.47,56.02 L42.13,56.02 L42.13,18.42 L42.12,18.42 Z" id="Path"></path>
                    <path d="M121.23,18.42 L121.23,52.66 C121.23,56.06 120.81,59.12 119.99,61.87 C119.16,64.61 117.87,66.94 116.14,68.85 C114.4,70.76 112.21,72.23 109.56,73.28 C106.91,74.33 103.77,74.85 100.14,74.85 C98.63,74.85 97.04,74.72 95.35,74.46 C93.66,74.2 92,73.8 90.37,73.28 C88.73,72.76 87.16,72.1 85.66,71.32 C84.15,70.54 82.81,69.65 81.61,68.66 L86.98,61.37 C88.8,63.1 90.85,64.41 93.13,65.33 C95.41,66.24 97.72,66.7 100.06,66.7 C102.29,66.7 104.17,66.37 105.7,65.72 C107.23,65.06 108.45,64.16 109.36,63.01 C110.27,61.86 110.92,60.49 111.31,58.92 C111.7,57.35 111.89,55.62 111.89,53.73 L111.89,50.98 L111.74,50.98 C110.39,52.83 108.66,54.24 106.56,55.22 C104.46,56.19 102.11,56.68 99.51,56.68 C96.71,56.68 94.17,56.15 91.88,55.11 C89.6,54.06 87.66,52.65 86.08,50.88 C84.49,49.1 83.26,47.03 82.38,44.65 C81.5,42.28 81.06,39.75 81.06,37.09 C81.06,34.37 81.49,31.81 82.34,29.41 C83.2,27.01 84.42,24.92 86,23.14 C87.58,21.36 89.5,19.95 91.76,18.91 C94.02,17.87 96.55,17.34 99.35,17.34 C102,17.34 104.46,17.89 106.75,18.98 C109.03,20.08 110.85,21.78 112.2,24.07 L112.35,24.07 L112.35,18.43 L121.23,18.43 L121.23,18.42 Z M101.3,25 C99.59,25 98.07,25.31 96.75,25.94 C95.43,26.56 94.31,27.41 93.4,28.47 C92.49,29.54 91.79,30.8 91.3,32.26 C90.81,33.72 90.56,35.28 90.56,36.94 C90.56,38.45 90.81,39.91 91.3,41.32 C91.79,42.72 92.49,43.99 93.4,45.1 C94.31,46.22 95.42,47.12 96.75,47.79 C98.07,48.47 99.56,48.81 101.22,48.81 C102.93,48.81 104.48,48.48 105.85,47.83 C107.22,47.18 108.39,46.31 109.35,45.21 C110.31,44.12 111.05,42.86 111.57,41.43 C112.09,40 112.35,38.5 112.35,36.94 C112.35,35.33 112.09,33.79 111.57,32.33 C111.05,30.87 110.31,29.6 109.35,28.5 C108.39,27.41 107.23,26.55 105.89,25.93 C104.54,25.31 103.01,25 101.3,25 Z" id="Shape"></path>
                    <path d="M126.02,5.64 C126.02,4.12 126.58,2.8 127.69,1.68 C128.81,0.56 130.22,1.13686838e-13 131.93,1.13686838e-13 C133.64,1.13686838e-13 135.08,0.54 136.25,1.61 C137.42,2.68 138,4.03 138,5.65 C138,7.27 137.42,8.61 136.25,9.68 C135.08,10.76 133.64,11.29 131.93,11.29 C130.22,11.29 128.8,10.73 127.69,9.6 C126.58,8.48 126.02,7.16 126.02,5.64 Z M127.34,18.42 L136.68,18.42 L136.68,56.03 L127.34,56.03 L127.34,18.42 Z" id="Shape"></path>
                    <path d="M142.8,18.42 L151.67,18.42 L151.67,24.45 L151.82,24.45 C152.65,22.57 154.09,20.91 156.14,19.47 C158.19,18.04 160.62,17.32 163.42,17.32 C165.86,17.32 167.95,17.75 169.69,18.61 C171.43,19.47 172.86,20.61 173.97,22.02 C175.08,23.43 175.9,25.05 176.42,26.87 C176.94,28.7 177.2,30.58 177.2,32.51 L177.2,56.02 L167.86,56.02 L167.86,35.18 C167.86,34.08 167.78,32.93 167.63,31.73 C167.48,30.53 167.14,29.44 166.62,28.48 C166.1,27.51 165.39,26.71 164.48,26.09 C163.57,25.46 162.37,25.15 160.86,25.15 C159.35,25.15 158.06,25.45 156.97,26.05 C155.88,26.65 154.99,27.42 154.29,28.36 C153.59,29.3 153.06,30.39 152.69,31.61 C152.32,32.83 152.15,34.08 152.15,35.33 L152.15,56.02 L142.81,56.02 L142.81,18.42 L142.8,18.42 Z" id="Path"></path>
                    <path d="M219.22,37.69 C219.22,38.11 219.22,38.53 219.22,38.94 C219.22,39.35 219.19,39.78 219.14,40.19 L190.73,40.19 C190.83,41.55 191.18,42.79 191.78,43.91 C192.37,45.03 193.17,46 194.15,46.81 C195.14,47.62 196.25,48.26 197.5,48.73 C198.74,49.2 200.04,49.44 201.39,49.44 C203.72,49.44 205.7,49.01 207.3,48.15 C208.9,47.29 210.23,46.1 211.27,44.58 L217.5,49.59 C213.82,54.6 208.47,57.11 201.46,57.11 C198.55,57.11 195.88,56.65 193.44,55.74 C191,54.83 188.89,53.53 187.1,51.86 C185.31,50.19 183.91,48.14 182.9,45.71 C181.89,43.28 181.38,40.52 181.38,37.44 C181.38,34.41 181.89,31.66 182.9,29.18 C183.91,26.7 185.3,24.58 187.07,22.83 C188.83,21.08 190.92,19.72 193.34,18.75 C195.75,17.79 198.36,17.3 201.16,17.3 C203.75,17.3 206.15,17.73 208.36,18.59 C210.57,19.45 212.47,20.73 214.08,22.43 C215.69,24.13 216.95,26.24 217.86,28.78 C218.76,31.33 219.22,34.29 219.22,37.69 Z M209.87,33.46 C209.87,32.26 209.7,31.11 209.36,30.01 C209.02,28.91 208.49,27.95 207.77,27.11 C207.04,26.27 206.12,25.61 205.01,25.11 C203.89,24.61 202.58,24.37 201.08,24.37 C198.28,24.37 195.9,25.22 193.96,26.91 C192.01,28.61 190.93,30.79 190.73,33.46 L209.87,33.46 L209.87,33.46 Z" id="Shape"></path>
                    <path d="M260.79,37.69 C260.79,38.11 260.79,38.53 260.79,38.94 C260.79,39.35 260.76,39.78 260.71,40.19 L232.3,40.19 C232.4,41.55 232.75,42.79 233.35,43.91 C233.94,45.03 234.74,46 235.72,46.81 C236.71,47.62 237.82,48.26 239.07,48.73 C240.31,49.2 241.61,49.44 242.96,49.44 C245.29,49.44 247.27,49.01 248.87,48.15 C250.47,47.29 251.8,46.1 252.84,44.58 L259.07,49.59 C255.39,54.6 250.04,57.11 243.03,57.11 C240.12,57.11 237.45,56.65 235.01,55.74 C232.57,54.83 230.46,53.53 228.67,51.86 C226.88,50.19 225.48,48.14 224.47,45.71 C223.46,43.28 222.95,40.52 222.95,37.44 C222.95,34.41 223.45,31.66 224.47,29.18 C225.49,26.7 226.87,24.58 228.64,22.83 C230.4,21.08 232.49,19.72 234.91,18.75 C237.32,17.79 239.93,17.3 242.73,17.3 C245.33,17.3 247.72,17.73 249.93,18.59 C252.14,19.45 254.04,20.73 255.65,22.43 C257.26,24.13 258.52,26.24 259.43,28.78 C260.33,31.33 260.79,34.29 260.79,37.69 Z M251.44,33.46 C251.44,32.26 251.27,31.11 250.93,30.01 C250.59,28.91 250.06,27.95 249.34,27.11 C248.61,26.27 247.69,25.61 246.58,25.11 C245.46,24.61 244.15,24.37 242.65,24.37 C239.85,24.37 237.47,25.22 235.53,26.91 C233.58,28.61 232.5,30.79 232.3,33.46 L251.44,33.46 L251.44,33.46 Z" id="Shape"></path>
                    <path d="M265.99,18.42 L274.94,18.42 L274.94,24.69 L275.09,24.69 C276.13,22.5 277.58,20.72 279.45,19.36 C281.32,18 283.5,17.32 285.99,17.32 C286.35,17.32 286.74,17.33 287.16,17.36 C287.58,17.39 287.94,17.45 288.25,17.55 L288.25,26.17 C287.63,26.01 287.1,25.91 286.66,25.86 C286.22,25.81 285.79,25.78 285.37,25.78 C283.24,25.78 281.53,26.17 280.23,26.96 C278.93,27.74 277.92,28.68 277.19,29.78 C276.46,30.88 275.97,32 275.71,33.15 C275.45,34.3 275.32,35.22 275.32,35.89 L275.32,56.03 L265.98,56.03 L265.98,18.42 L265.99,18.42 Z" id="Path"></path>
                    <path d="M291.11,5.64 C291.11,4.12 291.67,2.8 292.78,1.68 C293.9,0.56 295.31,1.13686838e-13 297.02,1.13686838e-13 C298.73,1.13686838e-13 300.17,0.54 301.34,1.61 C302.51,2.68 303.09,4.03 303.09,5.65 C303.09,7.27 302.51,8.61 301.34,9.68 C300.17,10.76 298.73,11.29 297.02,11.29 C295.31,11.29 293.89,10.73 292.78,9.6 C291.67,8.48 291.11,7.16 291.11,5.64 Z M292.43,18.42 L301.77,18.42 L301.77,56.03 L292.43,56.03 L292.43,18.42 Z" id="Shape"></path>
                    <path d="M307.53,18.42 L316.4,18.42 L316.4,24.45 L316.55,24.45 C317.38,22.57 318.82,20.91 320.87,19.47 C322.92,18.04 325.35,17.32 328.15,17.32 C330.59,17.32 332.68,17.75 334.42,18.61 C336.16,19.47 337.59,20.61 338.7,22.02 C339.82,23.43 340.63,25.05 341.15,26.87 C341.67,28.7 341.93,30.58 341.93,32.51 L341.93,56.02 L332.59,56.02 L332.59,35.18 C332.59,34.08 332.51,32.93 332.36,31.73 C332.21,30.53 331.87,29.44 331.35,28.48 C330.83,27.51 330.12,26.71 329.21,26.09 C328.3,25.46 327.1,25.15 325.59,25.15 C324.08,25.15 322.79,25.45 321.7,26.05 C320.61,26.65 319.72,27.42 319.02,28.36 C318.32,29.3 317.79,30.39 317.42,31.61 C317.05,32.83 316.88,34.08 316.88,35.33 L316.88,56.02 L307.54,56.02 L307.54,18.42 L307.53,18.42 Z" id="Path"></path>
                    <path d="M386.64,18.42 L386.64,52.66 C386.64,56.06 386.22,59.12 385.4,61.87 C384.57,64.61 383.28,66.94 381.55,68.85 C379.81,70.76 377.62,72.23 374.97,73.28 C372.32,74.33 369.18,74.85 365.55,74.85 C364.04,74.85 362.45,74.72 360.76,74.46 C359.07,74.2 357.41,73.8 355.78,73.28 C354.14,72.76 352.57,72.1 351.07,71.32 C349.56,70.54 348.22,69.65 347.02,68.66 L352.39,61.37 C354.21,63.1 356.26,64.41 358.54,65.33 C360.82,66.24 363.13,66.7 365.47,66.7 C367.7,66.7 369.58,66.37 371.11,65.72 C372.64,65.06 373.86,64.16 374.77,63.01 C375.68,61.86 376.33,60.49 376.71,58.92 C377.1,57.35 377.29,55.62 377.29,53.73 L377.29,50.98 L377.14,50.98 C375.79,52.83 374.06,54.24 371.96,55.22 C369.86,56.19 367.51,56.68 364.91,56.68 C362.11,56.68 359.57,56.15 357.28,55.11 C355,54.06 353.06,52.65 351.48,50.88 C349.89,49.1 348.66,47.03 347.78,44.65 C346.9,42.28 346.46,39.75 346.46,37.09 C346.46,34.37 346.89,31.81 347.74,29.41 C348.6,27.01 349.82,24.92 351.4,23.14 C352.98,21.36 354.9,19.95 357.16,18.91 C359.42,17.87 361.95,17.34 364.75,17.34 C367.4,17.34 369.86,17.89 372.15,18.98 C374.43,20.08 376.25,21.78 377.6,24.07 L377.75,24.07 L377.75,18.43 L386.64,18.43 L386.64,18.42 Z M366.71,25 C365,25 363.48,25.31 362.16,25.94 C360.84,26.56 359.72,27.41 358.81,28.47 C357.9,29.54 357.2,30.8 356.71,32.26 C356.22,33.72 355.97,35.28 355.97,36.94 C355.97,38.45 356.22,39.91 356.71,41.32 C357.2,42.72 357.9,43.99 358.81,45.1 C359.72,46.22 360.83,47.12 362.16,47.79 C363.48,48.47 364.97,48.81 366.63,48.81 C368.34,48.81 369.89,48.48 371.26,47.83 C372.63,47.18 373.8,46.31 374.76,45.21 C375.72,44.12 376.46,42.86 376.98,41.43 C377.5,40 377.76,38.5 377.76,36.94 C377.76,35.33 377.5,33.79 376.98,32.33 C376.46,30.87 375.72,29.6 374.76,28.5 C373.8,27.41 372.64,26.55 371.3,25.93 C369.96,25.31 368.43,25 366.71,25 Z" id="Shape"></path>
                </g>
                <g transform="translate(1143.350000, 0.010000)">
                    <polygon id="Path" points="-2.5243549e-29 3.75 36.51 3.75 36.51 12.37 9.81 12.37 9.81 26.47 35.11 26.47 35.11 34.78 9.81 34.78 9.81 50.45 37.91 50.45 37.91 59.22 -2.27373675e-13 59.22 -2.27373675e-13 3.75"></polygon>
                    <path d="M81.89,59.23 L73.02,59.23 L73.02,53.59 L72.87,53.59 C71.57,55.78 69.77,57.46 67.46,58.6 C65.15,59.75 62.67,60.33 60.03,60.33 C57.17,60.33 54.62,59.79 52.36,58.72 C50.1,57.65 48.18,56.21 46.6,54.41 C45.02,52.61 43.8,50.49 42.94,48.06 C42.08,45.63 41.65,43.04 41.65,40.27 C41.65,37.5 42.09,34.91 42.97,32.51 C43.85,30.11 45.1,28.02 46.71,26.24 C48.32,24.46 50.24,23.07 52.47,22.05 C54.7,21.03 57.14,20.52 59.79,20.52 C61.5,20.52 63.03,20.71 64.38,21.11 C65.73,21.5 66.91,21.99 67.92,22.56 C68.93,23.13 69.8,23.76 70.53,24.44 C71.26,25.12 71.85,25.77 72.32,26.4 L72.55,26.4 L72.55,1.13686838e-13 L81.89,1.13686838e-13 L81.89,59.23 L81.89,59.23 Z M51.14,40.26 C51.14,41.72 51.36,43.18 51.8,44.65 C52.24,46.11 52.9,47.42 53.78,48.57 C54.66,49.72 55.78,50.66 57.13,51.39 C58.48,52.12 60.06,52.49 61.88,52.49 C63.59,52.49 65.12,52.13 66.47,51.43 C67.82,50.72 68.97,49.8 69.93,48.65 C70.89,47.5 71.61,46.21 72.11,44.77 C72.6,43.34 72.85,41.89 72.85,40.42 C72.85,38.95 72.6,37.49 72.11,36.03 C71.61,34.57 70.89,33.26 69.93,32.11 C68.97,30.96 67.81,30.02 66.47,29.29 C65.12,28.56 63.59,28.2 61.88,28.2 C60.06,28.2 58.48,28.55 57.13,29.26 C55.78,29.97 54.66,30.89 53.78,32.04 C52.9,33.19 52.24,34.48 51.8,35.92 C51.36,37.35 51.14,38.8 51.14,40.26 Z" id="Shape"></path>
                    <path d="M122.46,59.23 L113.59,59.23 L113.59,53.2 L113.44,53.2 C112.61,55.08 111.17,56.74 109.12,58.18 C107.07,59.61 104.64,60.33 101.84,60.33 C99.4,60.33 97.31,59.9 95.57,59.04 C93.83,58.18 92.4,57.04 91.29,55.63 C90.17,54.22 89.35,52.6 88.84,50.77 C88.32,48.94 88.06,47.06 88.06,45.13 L88.06,21.63 L97.4,21.63 L97.4,42.47 C97.4,43.56 97.48,44.72 97.63,45.91 C97.78,47.12 98.12,48.2 98.64,49.16 C99.16,50.13 99.87,50.92 100.78,51.55 C101.69,52.18 102.89,52.49 104.4,52.49 C105.85,52.49 107.14,52.19 108.25,51.59 C109.37,50.99 110.27,50.22 110.98,49.28 C111.69,48.34 112.21,47.26 112.58,46.03 C112.94,44.8 113.12,43.56 113.12,42.3 L113.12,21.62 L122.46,21.62 L122.46,59.23 L122.46,59.23 Z" id="Path"></path>
                    <path d="M154.66,32.03 C153.93,30.98 152.84,30.11 151.39,29.4 C149.94,28.7 148.46,28.34 146.95,28.34 C145.24,28.34 143.73,28.7 142.43,29.4 C141.13,30.11 140.05,31.03 139.2,32.18 C138.34,33.33 137.71,34.63 137.29,36.06 C136.87,37.49 136.67,38.94 136.67,40.41 C136.67,41.88 136.89,43.32 137.33,44.76 C137.77,46.19 138.43,47.49 139.31,48.64 C140.19,49.79 141.3,50.72 142.62,51.42 C143.94,52.13 145.49,52.48 147.25,52.48 C148.7,52.48 150.15,52.19 151.61,51.61 C153.06,51.04 154.23,50.2 155.11,49.1 L160.95,55.05 C159.39,56.72 157.41,58.02 154.99,58.93 C152.58,59.84 149.97,60.3 147.17,60.3 C144.42,60.3 141.81,59.85 139.35,58.97 C136.89,58.08 134.73,56.78 132.89,55.05 C131.05,53.33 129.59,51.24 128.53,48.78 C127.47,46.33 126.94,43.53 126.94,40.4 C126.94,37.37 127.47,34.63 128.53,32.17 C129.59,29.72 131.03,27.63 132.85,25.9 C134.67,24.17 136.78,22.84 139.19,21.9 C141.6,20.96 144.18,20.49 146.94,20.49 C149.69,20.49 152.35,21.02 154.92,22.06 C157.49,23.11 159.53,24.54 161.03,26.37 L154.66,32.03 Z" id="Path"></path>
                    <path d="M188.63,54.44 L188.4,54.44 C187.46,56.11 185.96,57.48 183.88,58.56 C181.8,59.63 179.44,60.17 176.8,60.17 C175.29,60.17 173.72,59.98 172.09,59.58 C170.46,59.19 168.95,58.54 167.58,57.62 C166.2,56.71 165.06,55.5 164.15,54.02 C163.24,52.53 162.79,50.69 162.79,48.49 C162.79,45.67 163.58,43.42 165.17,41.75 C166.75,40.08 168.79,38.8 171.28,37.91 C173.77,37.02 176.54,36.44 179.57,36.15 C182.61,35.86 185.58,35.72 188.48,35.72 L188.48,34.78 C188.48,32.43 187.64,30.69 185.95,29.57 C184.26,28.45 182.25,27.88 179.92,27.88 C177.95,27.88 176.05,28.3 174.24,29.13 C172.42,29.97 170.92,30.98 169.73,32.18 L164.9,26.46 C167.03,24.48 169.48,22.99 172.26,21.99 C175.04,20.99 177.85,20.5 180.7,20.5 C184.02,20.5 186.76,20.97 188.91,21.91 C191.07,22.85 192.76,24.08 194.01,25.59 C195.25,27.11 196.12,28.81 196.62,30.68 C197.11,32.56 197.36,34.44 197.36,36.32 L197.36,59.2 L188.64,59.2 L188.64,54.44 L188.63,54.44 Z M188.47,42.06 L186.37,42.06 C184.86,42.06 183.28,42.13 181.62,42.25 C179.96,42.38 178.43,42.67 177.03,43.12 C175.63,43.56 174.46,44.19 173.53,45 C172.6,45.81 172.13,46.92 172.13,48.33 C172.13,49.22 172.33,49.96 172.71,50.56 C173.1,51.16 173.61,51.64 174.23,52.01 C174.85,52.37 175.55,52.64 176.33,52.79 C177.11,52.95 177.89,53.02 178.67,53.02 C181.89,53.02 184.33,52.16 185.99,50.44 C187.65,48.71 188.48,46.36 188.48,43.39 L188.48,42.06 L188.47,42.06 Z" id="Shape"></path>
                    <path d="M198.98,29.14 L198.98,21.62 L205.52,21.62 L205.52,10.72 L214.71,10.72 L214.71,21.62 L224.05,21.62 L224.05,29.14 L214.71,29.14 L214.71,46.61 C214.71,48.28 215.01,49.67 215.6,50.76 C216.2,51.86 217.53,52.41 219.61,52.41 C220.23,52.41 220.91,52.34 221.63,52.21 C222.36,52.08 223,51.88 223.58,51.62 L223.89,58.99 C223.06,59.3 222.07,59.55 220.93,59.73 C219.79,59.91 218.7,60 217.66,60 C215.17,60 213.14,59.65 211.59,58.94 C210.03,58.23 208.8,57.27 207.89,56.04 C206.98,54.81 206.36,53.4 206.02,51.81 C205.68,50.21 205.51,48.51 205.51,46.68 L205.51,29.13 L198.98,29.13 L198.98,29.14 Z" id="Path"></path>
                    <path d="M227.6,8.84 C227.6,7.32 228.16,6 229.27,4.88 C230.39,3.76 231.8,3.2 233.51,3.2 C235.22,3.2 236.66,3.74 237.83,4.81 C239,5.88 239.58,7.23 239.58,8.85 C239.58,10.47 239,11.81 237.83,12.88 C236.66,13.96 235.22,14.49 233.51,14.49 C231.8,14.49 230.38,13.93 229.27,12.8 C228.16,11.68 227.6,10.36 227.6,8.84 Z M228.93,21.62 L238.27,21.62 L238.27,59.23 L228.93,59.23 L228.93,21.62 Z" id="Shape"></path>
                    <path d="M243.27,40.26 C243.27,37.28 243.8,34.58 244.86,32.15 C245.92,29.72 247.36,27.65 249.18,25.92 C251,24.19 253.15,22.86 255.64,21.92 C258.13,20.98 260.78,20.51 263.58,20.51 C266.38,20.51 269.03,20.98 271.52,21.92 C274.01,22.86 276.16,24.19 277.98,25.92 C279.8,27.64 281.24,29.72 282.3,32.15 C283.36,34.58 283.9,37.28 283.9,40.26 C283.9,43.24 283.37,45.95 282.3,48.41 C281.24,50.87 279.8,52.97 277.98,54.72 C276.16,56.47 274.01,57.84 271.52,58.83 C269.03,59.82 266.38,60.32 263.58,60.32 C260.78,60.32 258.13,59.82 255.64,58.83 C253.15,57.84 251,56.47 249.18,54.72 C247.36,52.97 245.92,50.87 244.86,48.41 C243.8,45.96 243.27,43.24 243.27,40.26 Z M252.77,40.26 C252.77,41.72 252.99,43.18 253.43,44.65 C253.87,46.11 254.53,47.42 255.42,48.57 C256.3,49.72 257.42,50.66 258.77,51.39 C260.12,52.12 261.73,52.49 263.6,52.49 C265.47,52.49 267.07,52.13 268.43,51.39 C269.78,50.66 270.89,49.72 271.78,48.57 C272.66,47.42 273.32,46.11 273.77,44.65 C274.21,43.19 274.43,41.72 274.43,40.26 C274.43,38.8 274.21,37.35 273.77,35.91 C273.33,34.47 272.67,33.18 271.78,32.03 C270.9,30.88 269.78,29.95 268.43,29.25 C267.08,28.54 265.47,28.19 263.6,28.19 C261.73,28.19 260.12,28.54 258.77,29.25 C257.42,29.96 256.31,30.88 255.42,32.03 C254.54,33.18 253.87,34.47 253.43,35.91 C252.99,37.35 252.77,38.8 252.77,40.26 Z" id="Shape"></path>
                    <path d="M288.4,21.62 L297.27,21.62 L297.27,27.65 L297.42,27.65 C298.25,25.77 299.69,24.11 301.74,22.67 C303.79,21.24 306.22,20.52 309.02,20.52 C311.46,20.52 313.55,20.95 315.29,21.81 C317.03,22.67 318.46,23.81 319.57,25.22 C320.69,26.63 321.5,28.25 322.02,30.07 C322.54,31.9 322.8,33.78 322.8,35.71 L322.8,59.22 L313.46,59.22 L313.46,38.38 C313.46,37.28 313.38,36.13 313.23,34.93 C313.08,33.73 312.74,32.64 312.22,31.68 C311.7,30.71 310.99,29.91 310.08,29.29 C309.17,28.66 307.97,28.35 306.46,28.35 C304.95,28.35 303.66,28.65 302.57,29.25 C301.48,29.85 300.59,30.62 299.89,31.56 C299.19,32.5 298.66,33.59 298.29,34.81 C297.93,36.04 297.75,37.28 297.75,38.53 L297.75,59.22 L288.41,59.22 L288.41,21.62 L288.4,21.62 Z" id="Path"></path>
                </g>
            </g>
            <g id="Group" transform="translate(585.680000, 0.000000)" fill="#A5ACAB">
                <g transform="translate(963.130000, 0.000000)">
                    <polygon id="Path" points="53.61 159.91 53.61 158.26 0 158.26 0 216.87 53.61 216.87"></polygon>
                    <rect id="Rectangle" x="0" y="0" width="53.61" height="58.61"></rect>
                    <path d="M263.62,0 L228.87,0 C259.47,12.84 283.85,35.34 296.91,62.99 C351.93,77.71 392.57,127.97 392.57,187.56 C392.57,253.75 342.43,308.43 278.14,315.67 L306.09,369.74 L306.31,370.16 C389.23,350.78 451.19,276.29 451.19,187.55 C451.19,84.14 367.05,0 263.62,0 Z" id="Path"></path>
                    <polygon id="Path" points="0 316.52 0 375.13 219.22 375.13 188.93 316.52"></polygon>
                </g>
                <g transform="translate(-0.000000, 0.000000)">
                    <path d="M167.15,24.89 C155.15,16 141.49,9.55 126.56,5.7 C111.83,1.91 97,5.68434189e-14 82.47,5.68434189e-14 L2.27373675e-13,5.68434189e-14 L2.27373675e-13,228.4 L82.47,228.4 C97.07,228.4 111.96,226.21 126.73,221.88 C141.65,217.51 155.27,210.65 167.23,201.46 C179.26,192.21 189.18,180.24 196.69,165.87 C204.23,151.44 208.05,134.05 208.05,114.2 C208.05,92.93 204.23,74.78 196.69,60.24 C189.17,45.74 179.23,33.85 167.15,24.89 Z M156.14,114.2 C156.14,128.06 153.75,139.58 149.04,148.43 C144.32,157.3 138.17,164.41 130.78,169.56 C123.26,174.8 114.69,178.57 105.3,180.78 C95.68,183.03 85.92,184.18 76.3,184.18 L49.13,184.18 L49.13,43.61 L76.3,43.61 C85.96,43.61 95.76,44.61 105.45,46.59 C114.79,48.5 123.33,52.06 130.82,57.19 C138.18,62.22 144.31,69.35 149.02,78.4 C153.74,87.47 156.14,99.52 156.14,114.2 Z" id="Shape"></path>
                    <g transform="translate(222.860000, 0.000000)">
                        <path d="M26.59,0 C18.99,0 12.6,2.69 7.57,7.99 C2.55,13.3 0,19.65 0,26.86 C0,34.09 2.54,40.44 7.57,45.73 C12.59,51.04 18.99,53.72 26.59,53.72 C34.1,53.72 40.53,51.18 45.72,46.19 C51.04,41.08 53.74,34.58 53.74,26.85 C53.74,19.13 51.04,12.63 45.73,7.52 C40.54,2.54 34.1,0 26.59,0 Z" id="Path"></path>
                        <rect id="Rectangle" x="3.21" y="70.23" width="47.33" height="158.17"></rect>
                    </g>
                    <path d="M415.24,83.29 C410.94,79.01 406,75.54 400.46,72.89 C380.56,63.39 355.51,63.97 336.79,72.55 C327.26,76.93 319.02,82.95 312.32,90.43 C305.64,97.88 300.42,106.74 296.83,116.78 C293.26,126.72 291.44,137.46 291.44,148.71 C291.44,159.75 293.31,170.36 297,180.23 C300.69,190.14 305.95,198.93 312.62,206.35 C319.33,213.83 327.62,219.85 337.28,224.24 C346.94,228.63 357.81,230.86 369.6,230.86 C380.57,230.86 390.67,228.76 399.64,224.63 C404.7,222.29 409.3,219.34 413.39,215.81 C413.28,222.12 412.56,227.98 411.24,233.26 C409.89,238.69 407.62,243.44 404.51,247.37 C401.47,251.2 397.28,254.26 392.06,256.5 C380.99,261.19 362.57,261.43 346.25,254.92 C337.87,251.59 330.23,246.71 323.55,240.41 L319.32,236.42 L291.68,273.67 L295.47,276.8 C300.46,280.92 306.15,284.64 312.39,287.86 C318.56,291.07 325.1,293.78 331.85,295.91 C338.55,298.04 345.45,299.65 352.34,300.71 C359.26,301.77 365.9,302.3 372.06,302.3 C387.02,302.3 400.2,300.11 411.21,295.79 C422.37,291.41 431.78,285.11 439.15,277.07 C446.52,269.05 452.04,259.15 455.54,247.68 C458.96,236.46 460.69,223.77 460.69,209.99 L460.69,70.23 L415.25,70.23 L415.25,83.29 L415.24,83.29 Z M404.68,118.51 C408.02,122.29 410.64,126.78 412.46,131.85 C414.3,137.01 415.24,142.52 415.24,148.23 C415.24,153.73 414.31,159.07 412.47,164.11 C410.65,169.11 408.02,173.56 404.68,177.34 C401.35,181.1 397.26,184.13 392.49,186.37 C383.26,190.72 370.14,190.93 361,186.29 C356.43,183.96 352.54,180.85 349.42,177.03 C346.22,173.12 343.72,168.63 341.98,163.7 C340.23,158.74 339.35,153.55 339.35,148.23 C339.35,142.27 340.24,136.64 342,131.47 C343.73,126.39 346.2,121.95 349.35,118.28 C352.45,114.67 356.32,111.75 360.85,109.63 C365.38,107.51 370.71,106.43 376.68,106.43 C382.67,106.43 388.05,107.51 392.69,109.64 C397.33,111.77 401.36,114.76 404.68,118.51 Z" id="Shape"></path>
                    <g transform="translate(476.680000, 0.000000)">
                        <path d="M26.59,0 C18.99,0 12.6,2.69 7.57,7.99 C2.55,13.3 0,19.65 0,26.86 C0,34.09 2.54,40.44 7.57,45.73 C12.59,51.04 18.99,53.72 26.59,53.72 C34.1,53.72 40.53,51.18 45.72,46.19 C51.04,41.08 53.74,34.58 53.74,26.85 C53.74,19.13 51.04,12.63 45.73,7.52 C40.54,2.54 34.1,0 26.59,0 Z" id="Path"></path>
                        <rect id="Rectangle" x="3.23" y="70.23" width="47.3" height="158.17"></rect>
                    </g>
                    <path d="M617.08,27.42 L570.4,27.42 L570.4,70.23 L544.53,70.23 L544.53,110.13 L570.4,110.13 L570.4,173.95 C570.4,181.5 571.11,188.65 572.51,195.21 C574,202.18 576.79,208.45 580.81,213.84 C584.92,219.36 590.53,223.74 597.46,226.86 C604.26,229.92 613.06,231.47 623.61,231.47 C627.94,231.47 632.56,231.09 637.36,230.33 C642.3,229.54 646.45,228.49 650.07,227.13 L653.57,225.81 L651.85,185.47 L644.87,188.65 C643.01,189.5 640.84,190.14 638.4,190.57 C635.82,191.03 633.43,191.27 631.3,191.27 C627.08,191.27 621.69,190.61 619.97,187.48 C618.04,183.96 617.06,179.3 617.06,173.64 L617.06,110.13 L654.02,110.13 L654.02,70.23 L617.06,70.23 L617.06,27.42 L617.08,27.42 Z" id="Path"></path>
                    <path d="M801.08,87.8 C795.63,81.24 788.2,75.88 778.98,71.88 C769.84,67.92 758.22,65.91 744.43,65.91 C732.61,65.91 720.79,67.98 709.29,72.06 C697.7,76.18 687.3,82.45 678.4,90.69 L674.77,94.06 L700.7,124.59 L704.66,120.62 C708.91,116.36 714.42,112.68 721.01,109.66 C735.04,103.27 751.62,103.85 762.36,110.96 C767.2,114.16 769.71,119 770.03,125.7 C760.05,125.84 749.8,126.41 739.48,127.38 C727.12,128.55 715.67,130.96 705.44,134.58 C694.87,138.34 686.05,143.85 679.25,150.98 C672.07,158.5 668.43,168.61 668.43,181.03 C668.43,190.59 670.5,198.81 674.58,205.45 C678.55,211.92 683.63,217.23 689.69,221.23 C695.61,225.15 702.18,227.97 709.2,229.64 C716.01,231.27 722.69,232.09 729.03,232.09 C740.26,232.09 750.49,229.78 759.41,225.22 C763.7,223.02 767.46,220.5 770.67,217.67 L770.67,228.4 L815.5,228.4 L815.5,133.3 C815.5,125.52 814.46,117.61 812.4,109.8 C810.27,101.71 806.46,94.31 801.08,87.8 Z M770.06,160.94 L770.06,161.01 C770.06,171.42 767.31,179.3 761.67,185.13 C756.13,190.83 747.64,193.73 736.43,193.73 C733.72,193.73 730.95,193.45 728.2,192.9 C725.68,192.4 723.43,191.57 721.47,190.42 C719.69,189.39 718.3,188.07 717.2,186.37 C716.22,184.88 715.73,182.87 715.73,180.41 C715.73,176.35 716.92,173.43 719.48,171.23 C722.62,168.52 726.67,166.38 731.51,164.86 C736.68,163.23 742.41,162.17 748.54,161.69 C754.99,161.19 761.17,160.93 766.92,160.93 L770.06,160.93 L770.06,160.94 Z" id="Shape"></path>
                    <rect id="Rectangle" x="835.74" y="0" width="47.3" height="228.39"></rect>
                </g>
            </g>
            <g id="Group" transform="translate(0.630000, 0.000000)" fill="#EE212E">
                <path d="M1759.49,212.34 C1808.44,197.37 1843.63,156.83 1843.63,109.26 C1843.63,49.01 1787.2,5.68434189e-14 1717.84,5.68434189e-14 L1676.55,5.68434189e-14 L1613.31,5.68434189e-14 L1613.31,58.61 L1613.31,159.9 L1613.31,218.51 L1613.31,306.03 L1676.55,306.03 L1676.55,218.51 L1699.46,218.51 L1780.38,375.12 L1843.64,375.12 L1759.49,212.34 Z M1676.55,159.91 L1676.55,58.61 L1717.84,58.61 C1752.33,58.61 1780.39,81.33 1780.39,109.26 C1780.39,137.19 1752.33,159.91 1717.84,159.91 L1676.55,159.91 L1676.55,159.91 Z" id="Shape"></path>
                <g>
                    <path d="M151.76,109.8 C161.53,98.92 166.48,84.75 166.48,67.7 C166.48,55.35 163.98,44.66 159.04,35.9 C154.13,27.21 147.51,20.08 139.36,14.72 C131.37,9.47 122.14,5.66 111.93,3.36 C101.94,1.14 91.51,0.01 80.93,0.01 L4.5519144e-15,0.01 L4.5519144e-15,228.39 L49.14,228.39 L49.14,136 L69.24,136 L119.75,228.39 L178.77,228.39 L119.39,129.75 C132.65,125.68 143.52,118.99 151.76,109.8 Z M113.93,80.64 C111.53,84.15 108.57,86.78 104.91,88.65 C101.02,90.64 96.53,92.02 91.56,92.76 C86.34,93.54 81,93.93 75.69,93.93 L49.14,93.93 L49.14,42.98 L79.08,42.98 C83.7,42.98 88.56,43.37 93.52,44.15 C98.15,44.88 102.3,46.24 105.85,48.2 C109.29,50.09 112.05,52.55 114.28,55.72 C116.31,58.62 117.34,62.54 117.34,67.38 C117.33,72.87 116.19,77.33 113.93,80.64 Z" id="Shape"></path>
                    <path d="M292.26,175.33 C288.6,180.64 284.05,184.69 278.39,187.72 C272.8,190.69 265.74,192.19 257.4,192.19 C252.7,192.19 248.13,191.37 243.82,189.76 C239.42,188.1 235.46,185.85 232.02,183.04 C228.66,180.3 225.94,177 223.92,173.21 C222.75,171.03 221.85,168.68 221.24,166.19 L332.19,166.19 L332.75,161.65 C332.98,159.8 333.1,157.96 333.1,156.1 L333.1,151.17 C333.1,137.31 331.18,124.96 327.4,114.46 C323.58,103.89 318.18,94.88 311.33,87.69 C304.46,80.5 296.22,75 286.83,71.36 C267.52,63.87 243.13,64.24 223.61,71.99 C213.46,76.04 204.54,81.8 197.1,89.13 C189.65,96.48 183.72,105.45 179.48,115.8 C175.24,126.15 173.09,137.73 173.09,150.25 C173.09,162.99 175.25,174.6 179.5,184.74 C183.76,194.93 189.79,203.67 197.38,210.7 C204.95,217.73 213.96,223.21 224.2,227 C234.38,230.8 245.66,232.71 257.72,232.71 C287.03,232.71 309.78,222.06 325.32,201.04 L328.28,197.04 L295.43,170.76 L292.26,175.33 Z M285.49,129.36 L221.21,129.36 C222.74,122.77 226.1,117.3 231.38,112.72 C238.17,106.84 246.28,103.97 256.17,103.97 C261.36,103.97 265.89,104.81 269.64,106.45 C273.33,108.09 276.4,110.28 278.77,112.98 C281.15,115.7 282.92,118.91 284.04,122.5 C284.71,124.71 285.2,127.01 285.49,129.36 Z" id="Shape"></path>
                    <path d="M481.27,87.8 C475.82,81.24 468.39,75.88 459.17,71.88 C450.03,67.92 438.41,65.91 424.62,65.91 C412.8,65.91 400.98,67.98 389.48,72.06 C377.89,76.18 367.49,82.45 358.59,90.69 L354.96,94.06 L380.89,124.59 L384.85,120.62 C389.1,116.36 394.61,112.68 401.2,109.66 C415.23,103.27 431.81,103.85 442.55,110.96 C447.39,114.16 449.9,119 450.22,125.7 C440.24,125.84 429.99,126.41 419.67,127.38 C407.31,128.55 395.86,130.96 385.63,134.58 C375.06,138.34 366.24,143.85 359.44,150.98 C352.26,158.5 348.62,168.61 348.62,181.03 C348.62,190.59 350.69,198.81 354.77,205.45 C358.74,211.92 363.82,217.23 369.88,221.23 C375.8,225.15 382.37,227.97 389.39,229.64 C396.2,231.27 402.88,232.09 409.22,232.09 C420.45,232.09 430.68,229.78 439.6,225.22 C443.89,223.02 447.65,220.5 450.86,217.67 L450.86,228.4 L495.69,228.4 L495.69,133.3 C495.69,125.52 494.65,117.61 492.59,109.8 C490.47,101.71 486.66,94.31 481.27,87.8 Z M450.26,160.94 L450.26,161.01 C450.26,171.42 447.51,179.3 441.87,185.13 C436.33,190.83 427.84,193.73 416.63,193.73 C413.92,193.73 411.15,193.45 408.4,192.9 C405.88,192.4 403.63,191.57 401.67,190.42 C399.89,189.39 398.5,188.07 397.4,186.37 C396.42,184.88 395.93,182.87 395.93,180.41 C395.93,176.35 397.12,173.43 399.68,171.23 C402.82,168.52 406.87,166.38 411.71,164.86 C416.88,163.23 422.61,162.17 428.74,161.69 C435.19,161.19 441.37,160.93 447.12,160.93 L450.26,160.93 L450.26,160.94 Z" id="Shape"></path>
                    <rect id="Rectangle" x="515.93" y="0" width="47.3" height="228.39"></rect>
                </g>
            </g>
        </g>
    </g>
</svg>